<?xml version="1.0" standalone="no"?>
<!DOCTYPE svg PUBLIC "-//W3C//DTD SVG 20010904//EN"
 "http://www.w3.org/TR/2001/REC-SVG-20010904/DTD/svg10.dtd">
<svg version="1.0" xmlns="http://www.w3.org/2000/svg"
 width="304.000000pt" height="303.000000pt" viewBox="0 0 304.000000 303.000000"
 preserveAspectRatio="xMidYMid meet">
<metadata>
Created by potrace 1.16, written by Peter Selinger 2001-2019
</metadata>
<g transform="translate(0.000000,303.000000) scale(0.100000,-0.100000)"
fill="#000000" stroke="none">
<path d="M1296 2985 c-187 -77 -327 -295 -392 -611 -21 -105 -27 -169 -33
-341 l-6 -212 -80 91 c-44 51 -108 130 -143 177 -130 179 -225 251 -332 251
-82 0 -134 -30 -187 -109 -63 -93 -88 -181 -88 -316 0 -102 2 -115 33 -186 62
-145 200 -322 360 -464 l79 -70 -5 -150 c-4 -118 -1 -168 12 -235 45 -221 136
-362 308 -478 36 -25 45 -36 41 -52 -8 -29 22 -102 55 -133 34 -32 104 -68
207 -104 74 -25 92 -28 225 -28 133 0 152 3 225 28 100 35 197 92 268 157 45
41 57 60 67 100 l12 49 74 16 c64 15 88 15 181 5 165 -18 219 -33 312 -89 233
-140 414 -144 491 -9 23 40 25 52 24 173 0 116 -3 137 -27 198 -85 218 -275
335 -578 355 l-102 7 -15 40 c-8 22 -15 74 -15 116 -1 67 3 85 35 150 45 96
191 312 377 557 167 221 201 276 237 387 53 163 30 277 -66 333 -40 24 -55 27
-135 27 -175 -1 -368 -92 -593 -279 -169 -141 -368 -370 -430 -496 l-27 -55
-3 105 c-4 118 12 366 33 510 31 220 28 331 -15 427 -25 57 -95 130 -152 159
-64 33 -151 32 -232 -1z m202 -158 c65 -63 75 -163 43 -427 -47 -379 -52 -611
-13 -691 24 -49 80 -89 126 -89 66 0 133 58 173 150 54 122 330 423 499 542
184 131 398 203 450 151 13 -14 15 -29 11 -81 -11 -111 -56 -194 -231 -427
-175 -232 -340 -474 -386 -565 -58 -115 -75 -239 -47 -348 l14 -52 -49 -6
c-26 -4 -48 -10 -48 -14 0 -4 35 -11 78 -14 195 -17 405 -67 515 -123 127 -64
207 -197 223 -369 8 -90 -7 -141 -43 -150 -40 -10 -149 29 -251 91 -126 76
-269 109 -472 108 -108 0 -124 -3 -265 -47 -152 -48 -260 -65 -328 -52 -50 9
-156 102 -187 163 -22 43 -25 60 -25 158 1 100 4 120 37 217 20 58 55 144 78
190 l41 83 -52 -55 c-228 -246 -288 -558 -143 -748 32 -41 26 -78 -13 -93 -59
-22 -230 47 -358 144 -97 74 -143 147 -194 306 -59 184 -74 260 -74 386 -1
119 14 188 60 280 23 46 24 48 5 31 -16 -14 -66 -82 -99 -135 -6 -10 -102 80
-175 163 -154 176 -227 329 -213 444 10 78 40 170 70 215 54 79 114 41 270
-168 92 -123 453 -527 471 -526 9 0 41 81 54 138 7 31 6 63 -7 125 -24 117
-23 404 1 553 51 310 174 523 335 580 44 15 73 6 119 -38z m39 -2554 c50 -3
113 0 140 5 26 6 49 9 51 7 8 -8 -88 -55 -153 -75 -85 -25 -260 -45 -312 -35
l-38 8 39 9 c50 11 99 41 121 74 13 20 22 24 38 19 12 -4 63 -10 114 -12z"/>
</g>
</svg>
