<?xml version="1.0" standalone="no"?>
<!DOCTYPE svg PUBLIC "-//W3C//DTD SVG 20010904//EN"
 "http://www.w3.org/TR/2001/REC-SVG-20010904/DTD/svg10.dtd">
<svg version="1.0" xmlns="http://www.w3.org/2000/svg"
 width="289.000000pt" height="286.000000pt" viewBox="0 0 289.000000 286.000000"
 preserveAspectRatio="xMidYMid meet">
<metadata>
Created by potrace 1.16, written by Peter Selinger 2001-2019
</metadata>
<g transform="translate(0.000000,286.000000) scale(0.100000,-0.100000)"
fill="#000000" stroke="none">
<path d="M1480 2834 c-77 -16 -166 -47 -233 -80 -46 -24 -48 -24 -98 -8 -115
38 -324 -3 -523 -103 -205 -102 -313 -210 -374 -373 -16 -41 -63 -136 -105
-210 -102 -177 -127 -256 -127 -399 0 -127 26 -271 71 -394 47 -127 51 -154
46 -262 -8 -155 23 -354 78 -500 65 -173 160 -270 360 -366 190 -91 313 -121
495 -121 298 0 591 116 933 369 56 42 117 89 135 104 l32 29 58 -30 c159 -81
284 -60 412 70 184 184 289 592 220 855 -40 156 -131 312 -260 449 -81 86
-173 152 -225 162 l-33 6 5 113 c7 142 -6 214 -59 325 -34 70 -57 101 -132
176 -147 147 -289 204 -501 203 -60 0 -139 -7 -175 -15z m329 -159 c119 -31
228 -106 307 -211 66 -89 87 -150 88 -264 1 -129 -12 -165 -72 -192 -113 -52
-219 -207 -265 -384 l-22 -84 -71 0 c-121 0 -334 70 -534 176 -77 41 -85 44
-97 28 -17 -23 -6 -39 70 -110 80 -74 154 -119 259 -155 99 -34 187 -49 286
-49 l72 0 1 -77 c2 -135 11 -188 34 -191 18 -2 22 8 37 100 19 115 50 217 111
358 60 140 124 225 190 249 113 43 264 -29 387 -185 148 -186 188 -396 125
-649 -57 -233 -170 -410 -288 -454 -105 -40 -264 33 -420 192 l-79 81 32 -64
c18 -36 48 -87 67 -114 19 -26 31 -52 26 -56 -37 -36 -253 -188 -339 -240
-248 -147 -509 -223 -704 -205 -205 20 -460 126 -567 237 -107 111 -163 317
-163 605 l0 152 -45 133 c-76 227 -92 390 -50 508 9 25 49 103 89 175 41 71
89 168 107 215 29 74 42 95 108 161 65 65 93 84 191 132 209 103 369 133 460
87 47 -23 80 -48 80 -60 0 -4 -22 -21 -49 -38 -81 -53 -130 -115 -156 -200 -6
-22 -3 -21 47 12 126 84 263 118 493 122 150 3 160 4 163 22 8 48 -126 114
-258 128 -60 6 -110 31 -110 55 0 10 79 39 148 54 79 18 245 18 311 0z"/>
<path d="M2270 1708 c-42 -28 -83 -108 -100 -190 -17 -86 -14 -288 5 -377 32
-154 116 -267 228 -309 29 -11 54 -18 57 -15 5 5 -21 28 -54 48 -15 9 -13 21
15 130 23 90 32 151 36 247 9 190 -22 308 -101 396 -34 38 -35 41 -17 47 12 3
36 -1 56 -11 41 -19 79 -77 113 -174 l23 -65 -5 59 c-7 80 -55 177 -102 207
-54 33 -111 36 -154 7z"/>
<path d="M1675 1098 c-82 -28 -304 -31 -382 -6 -29 9 -53 15 -53 13 0 -3 22
-16 48 -29 160 -81 331 -72 452 24 32 25 13 24 -65 -2z"/>
<path d="M1755 959 c-65 -44 -229 -120 -312 -145 -65 -19 -113 -26 -185 -27
-53 -1 -91 -5 -85 -8 36 -19 135 -33 232 -33 128 1 194 21 273 84 44 34 120
135 110 145 -2 2 -17 -5 -33 -16z"/>
</g>
</svg>
