<?xml version="1.0" standalone="no"?>
<!DOCTYPE svg PUBLIC "-//W3C//DTD SVG 20010904//EN"
 "http://www.w3.org/TR/2001/REC-SVG-20010904/DTD/svg10.dtd">
<svg version="1.0" xmlns="http://www.w3.org/2000/svg"
 width="356.000000pt" height="268.000000pt" viewBox="0 0 356.000000 268.000000"
 preserveAspectRatio="xMidYMid meet">
<metadata>
Created by potrace 1.16, written by Peter Selinger 2001-2019
</metadata>
<g transform="translate(0.000000,268.000000) scale(0.100000,-0.100000)"
fill="#000000" stroke="none">
<path d="M2887 2670 c-97 -17 -227 -67 -407 -158 -251 -127 -290 -137 -505
-136 -186 1 -373 23 -464 54 -71 26 -245 43 -346 35 -269 -21 -461 -92 -559
-207 -34 -39 -34 -39 -65 -24 -48 25 -110 20 -162 -12 -63 -41 -180 -214 -247
-367 -79 -180 -118 -409 -109 -635 6 -149 23 -233 69 -324 35 -70 108 -150
160 -177 49 -25 130 -25 186 1 l43 20 63 -63 c124 -124 273 -178 499 -181
l137 -2 63 -80 c116 -145 249 -249 392 -304 83 -32 256 -40 341 -15 124 35
253 135 294 228 28 65 32 105 21 208 -17 149 -47 258 -128 456 -3 7 38 -3 91
-22 134 -48 414 -133 521 -158 123 -28 343 -30 430 -3 137 42 243 124 298 231
35 69 47 180 28 252 -18 66 -70 133 -129 166 -45 25 -68 30 -170 38 -133 11
-275 36 -442 80 -113 30 -390 117 -390 123 0 2 62 8 138 15 420 37 543 108
677 395 55 118 69 179 63 280 -14 224 -153 326 -391 286z m202 -144 c41 -22
63 -66 69 -143 6 -78 -8 -135 -61 -240 -107 -215 -200 -267 -541 -298 -344
-31 -385 -37 -525 -71 -117 -28 -147 -32 -160 -22 -9 7 -36 30 -60 51 -51 43
-169 103 -221 112 l-35 6 35 -27 c118 -92 305 -324 379 -472 49 -96 49 -126
-3 -297 -121 -400 -233 -578 -336 -535 -65 27 -139 149 -161 265 -16 87 -6
258 18 321 21 53 116 181 155 208 19 13 19 16 5 22 -9 3 -15 10 -12 14 3 5
-15 -2 -40 -16 -51 -29 -69 -25 -55 12 12 30 13 84 3 84 -5 0 -21 -24 -38 -52
-43 -74 -169 -198 -235 -230 -138 -69 -283 -52 -422 47 -40 29 -48 32 -48 17
0 -27 51 -102 100 -146 117 -105 238 -117 423 -41 15 6 17 -1 17 -72 l0 -80
-53 -12 c-109 -24 -171 -107 -171 -228 l0 -73 -33 -6 c-49 -9 -214 13 -280 38
-120 44 -233 140 -233 196 0 16 5 64 10 108 6 43 10 131 8 194 l-3 115 -13
-82 c-27 -170 -73 -295 -124 -338 -42 -35 -138 -36 -188 -1 -44 30 -84 102
-107 192 -24 96 -23 352 1 489 42 236 117 416 213 514 66 67 103 83 134 56 43
-40 85 -242 96 -464 7 -151 15 -149 39 9 8 56 14 170 14 276 l0 181 29 40 c72
99 243 167 460 182 130 8 286 -2 336 -23 97 -41 497 -82 623 -65 115 15 229
46 291 78 31 15 99 50 152 78 258 134 450 179 548 129z m-859 -910 c379 -143
735 -235 987 -254 122 -10 150 -21 183 -75 27 -44 27 -127 -1 -184 -11 -23
-43 -63 -70 -87 -115 -103 -313 -130 -549 -75 -154 36 -502 148 -634 204 -36
15 -38 18 -32 48 28 134 3 241 -89 376 -19 30 -33 56 -31 59 4 4 89 27 116 31
3 1 57 -19 120 -43z m-151 -763 c47 -117 80 -262 83 -361 3 -108 -14 -142
-104 -201 -143 -97 -315 -96 -488 2 -63 35 -221 189 -268 261 -87 134 -79 221
24 242 28 5 31 3 42 -34 34 -112 101 -213 177 -268 138 -98 281 -23 393 207
27 57 60 132 72 167 13 34 26 62 30 62 4 0 22 -35 39 -77z"/>
<path d="M332 1910 c-18 -11 -41 -34 -51 -51 -22 -36 -35 -110 -26 -140 6 -17
12 -7 29 45 13 36 33 77 46 91 27 28 52 35 27 7 -40 -44 -67 -180 -88 -436
-14 -171 -7 -284 20 -338 l19 -38 -24 -6 c-31 -8 -49 8 -79 65 -24 46 -24 46
-18 11 10 -59 31 -99 57 -111 79 -36 177 74 226 256 17 61 24 118 27 238 5
138 3 169 -17 255 -25 108 -49 157 -83 166 -30 8 -28 8 -65 -14z"/>
</g>
</svg>
