<svg xmlns="http://www.w3.org/2000/svg" version="1.1" xmlns:xlink="http://www.w3.org/1999/xlink" xmlns:svgjs="http://svgjs.com/svgjs" width="1440" height="560" preserveAspectRatio="none" viewBox="0 0 1440 560"><g mask="url(&quot;#SvgjsMask1011&quot;)" fill="none"><rect width="1440" height="560" x="0" y="0" fill="rgba(181, 219, 239, 1)"></rect><path d="M0 0L543.5 0L0 68.32z" fill="rgba(255, 255, 255, .1)"></path><path d="M0 68.32L543.5 0L841.62 0L0 207.03z" fill="rgba(255, 255, 255, .075)"></path><path d="M0 207.03L841.62 0L940.76 0L0 421.1z" fill="rgba(255, 255, 255, .05)"></path><path d="M0 421.1L940.76 0L1021.13 0L0 481.77000000000004z" fill="rgba(255, 255, 255, .025)"></path><path d="M1440 560L1247.82 560L1440 291.72z" fill="rgba(0, 0, 0, .1)"></path><path d="M1440 291.72L1247.82 560L977.73 560L1440 239.00000000000003z" fill="rgba(0, 0, 0, .075)"></path><path d="M1440 239L977.73 560L859.77 560L1440 224.06z" fill="rgba(0, 0, 0, .05)"></path><path d="M1440 224.06L859.77 560L334.02 560L1440 111.45z" fill="rgba(0, 0, 0, .025)"></path></g><defs><mask id="SvgjsMask1011"><rect width="1440" height="560" fill="#ffffff"></rect></mask></defs></svg>